<svg width="125" height="74" viewBox="0 10 125 74" fill="none" xmlns="http://www.w3.org/2000/svg">
<path d="M8.43071 80.056C5.74271 80.056 4.03071 78.904 3.29471 76.6C3.55071 76.6 3.88671 76.616 4.30271 76.648C4.75071 76.648 5.11871 76.68 5.40671 76.744C5.85471 76.808 6.17471 76.84 6.36671 76.84C7.80671 76.84 9.00671 76.2 9.96671 74.92C10.6387 73.992 10.9747 73.048 10.9747 72.088C10.9747 71.448 10.8147 70.824 10.4947 70.216C9.79071 68.968 8.92671 67.592 7.90271 66.088C7.23071 65.096 6.62271 64.152 6.07871 63.256C5.43871 62.232 5.11871 61.096 5.11871 59.848C5.11871 58.696 5.43871 57.688 6.07871 56.824C6.75071 55.928 7.72671 55.368 9.00671 55.144L10.5427 54.856C12.2067 54.536 13.4547 54.376 14.2867 54.376C15.6627 54.376 16.8787 54.696 17.9347 55.336C18.1587 55.496 18.3827 55.784 18.6067 56.2C18.8627 56.584 19.0547 56.888 19.1827 57.112C18.9587 57.208 18.6387 57.368 18.2227 57.592C17.8387 57.784 17.5027 57.896 17.2147 57.928C16.7667 57.992 16.0947 58.024 15.1987 58.024C14.3347 58.024 13.6787 58.04 13.2307 58.072C12.2067 58.168 11.3907 58.52 10.7827 59.128C10.2067 59.704 9.91871 60.408 9.91871 61.24C9.91871 61.88 10.1107 62.536 10.4947 63.208C11.3587 64.648 12.5587 66.296 14.0947 68.152C15.2467 69.592 15.8227 71.08 15.8227 72.616C15.8227 73.448 15.6307 74.328 15.2467 75.256C13.9347 78.456 11.6627 80.056 8.43071 80.056ZM29.9272 72.616C30.8232 71.176 31.6232 69.992 32.3272 69.064C33.0312 68.104 33.9432 67.624 35.0632 67.624C35.2232 67.624 35.5592 67.656 36.0712 67.72C37.1272 67.912 37.8792 68.328 38.3272 68.968C38.8072 69.576 39.2552 70.488 39.6712 71.704C40.0552 72.792 40.3912 73.592 40.6792 74.104L42.0712 69.208C42.6472 67.224 42.9992 64.6 43.1272 61.336C43.2872 60.824 43.5592 60.392 43.9432 60.04C44.3592 59.688 44.9032 59.512 45.5752 59.512C45.8632 59.512 46.1192 59.56 46.3432 59.656C46.9192 59.912 47.3512 60.184 47.6392 60.472C47.9592 60.728 48.1192 61.128 48.1192 61.672C48.1192 61.928 48.1032 62.136 48.0712 62.296C47.8472 63.416 47.3992 65.544 46.7272 68.68L45.3352 75.112C45.2712 75.496 45.2072 75.816 45.1432 76.072C45.0472 76.872 44.9032 77.528 44.7112 78.04C44.5512 78.52 44.2312 78.92 43.7512 79.24C43.2712 79.592 42.8072 79.752 42.3592 79.72C41.1752 79.624 40.0552 79.256 38.9992 78.616C37.9752 77.944 37.1752 77.032 36.5992 75.88C36.3112 75.304 36.0392 74.824 35.7832 74.44C35.5592 74.024 35.2392 73.608 34.8232 73.192C34.7272 73.416 34.5672 73.912 34.3432 74.68C33.8632 76.056 33.5112 76.968 33.2872 77.416C33.0952 77.8 32.8072 78.168 32.4232 78.52C32.0712 78.84 31.7192 79.016 31.3672 79.048C30.7912 79.112 30.3752 79.144 30.1192 79.144C28.9992 79.144 28.1192 78.872 27.4792 78.328C26.8712 77.752 26.3112 76.776 25.7992 75.4L24.8392 72.616C24.2632 70.792 23.7192 69.432 23.2072 68.536C22.6952 67.64 21.9912 66.44 21.0952 64.936C20.9672 64.776 20.8552 64.536 20.7592 64.216C20.6632 63.864 20.6472 63.656 20.7112 63.592C20.8392 63.496 21.0632 63.32 21.3832 63.064C21.7352 62.776 22.0552 62.568 22.3432 62.44C22.6632 62.28 22.9512 62.2 23.2072 62.2C24.3592 62.2 25.3992 63.128 26.3272 64.984C27.2552 66.808 28.0232 68.248 28.6312 69.304L29.9272 72.616ZM57.4252 56.632C57.3612 56.824 57.1212 57.032 56.7052 57.256C56.3212 57.48 56.0012 57.688 55.7452 57.88L54.4012 57.16C53.0892 56.456 52.1932 55.896 51.7132 55.48C51.4572 55.288 51.3292 55.048 51.3292 54.76C51.3292 54.568 51.3932 54.408 51.5212 54.28C51.6812 54.12 51.9052 54.04 52.1932 54.04C53.4412 54.04 54.9612 54.36 56.7532 55C56.9452 55.032 57.1212 55.256 57.2812 55.672C57.4412 56.056 57.4892 56.376 57.4252 56.632ZM53.1052 65.56C53.2012 65.144 53.2652 64.84 53.2972 64.648C53.3292 64.456 53.3452 64.248 53.3452 64.024C53.3452 63.576 53.4732 63.224 53.7292 62.968C54.0172 62.712 54.5452 62.584 55.3132 62.584C56.2092 62.584 56.9932 62.872 57.6652 63.448C58.3692 63.992 58.8012 64.712 58.9612 65.608C59.0572 66.056 59.1212 66.552 59.1532 67.096C59.1852 67.64 59.2012 67.992 59.2012 68.152L59.8732 76.36C59.9692 77.224 59.8412 77.896 59.4892 78.376C59.1692 78.824 58.5452 79.048 57.6172 79.048C56.8172 79.048 56.1292 78.824 55.5532 78.376C55.0092 77.928 54.6732 77.352 54.5452 76.648L53.2972 66.472L53.1052 65.56ZM63.2077 61.096C62.9837 60.84 62.8237 60.568 62.7277 60.28C62.6637 59.992 62.5997 59.592 62.5357 59.08C62.8237 58.408 63.3517 58.072 64.1197 58.072C64.5037 58.136 64.7757 58.168 64.9357 58.168C65.5757 58.168 65.9757 57.976 66.1357 57.592C66.2957 57.208 66.3757 56.76 66.3757 56.248C66.3757 55.736 66.3757 55.336 66.3757 55.048L66.5197 52.168C66.5517 51.528 66.5837 50.744 66.6157 49.816C66.6797 48.856 66.7437 47.752 66.8077 46.504C66.8397 45.832 66.9997 45.336 67.2877 45.016C67.6077 44.696 68.0397 44.536 68.5837 44.536C68.9677 44.536 69.2717 44.568 69.4957 44.632C70.8077 44.92 71.6877 45.336 72.1357 45.88C72.5837 46.424 72.8877 47.24 73.0477 48.328C73.0797 48.552 73.0477 49.016 72.9517 49.72L72.0877 57.208C72.0557 57.4 72.0077 57.64 71.9437 57.928C71.8797 58.184 71.8477 58.376 71.8477 58.504C71.8477 58.792 72.0077 58.984 72.3277 59.08C72.6477 59.176 73.2397 59.208 74.1037 59.176C75.5757 58.856 76.6957 58.648 77.4637 58.552C77.6237 58.52 77.8797 58.504 78.2317 58.504C78.6157 58.504 78.8717 58.552 78.9997 58.648C79.1277 58.712 79.2237 58.904 79.2877 59.224C79.3837 59.512 79.4317 59.848 79.4317 60.232C79.4317 60.584 79.3837 60.904 79.2877 61.192C79.2237 61.48 79.1277 61.64 78.9997 61.672C78.1357 61.928 77.1117 62.136 75.9277 62.296C74.5197 62.552 73.4797 62.776 72.8077 62.968C72.4557 63.064 72.1037 63.304 71.7517 63.688C71.3997 64.072 71.2077 64.424 71.1757 64.744C71.1117 66.312 71.0637 67.912 71.0317 69.544C70.9997 70.792 71.0477 72.04 71.1757 73.288C71.2717 74.344 71.4797 75.112 71.7997 75.592C72.1197 76.04 72.5997 76.264 73.2397 76.264C73.7517 76.264 74.4877 76.088 75.4477 75.736C75.9597 75.512 76.4077 75.4 76.7917 75.4C77.3997 75.4 77.8317 75.736 78.0877 76.408C78.1837 76.632 78.2317 76.856 78.2317 77.08C78.2317 77.496 78.0717 77.832 77.7517 78.088C77.4637 78.344 77.0637 78.568 76.5517 78.76C75.5917 79.112 74.6157 79.304 73.6237 79.336C72.2797 79.336 71.0157 79.016 69.8317 78.376C68.6477 77.704 67.7037 76.776 66.9997 75.592C66.3277 74.408 66.0397 73.048 66.1357 71.512C66.1677 70.904 66.1837 69.944 66.1837 68.632C66.1837 66.552 66.1037 64.44 65.9437 62.296C65.9117 62.104 65.7997 61.976 65.6077 61.912C65.4157 61.816 65.0957 61.72 64.6477 61.624C63.9117 61.496 63.4317 61.32 63.2077 61.096ZM96.6825 71.368C97.5785 70.824 98.2025 70.552 98.5545 70.552C98.8425 70.552 99.0985 70.68 99.3225 70.936C99.5785 71.192 99.9145 71.64 100.33 72.28C99.1785 73.88 97.7865 75.176 96.1545 76.168C94.5225 77.128 92.6505 77.896 90.5385 78.472C90.1225 78.568 89.7065 78.616 89.2905 78.616C88.2025 78.616 87.0985 78.312 85.9785 77.704C84.8905 77.064 83.9785 76.248 83.2425 75.256C82.5065 74.232 82.1065 73.16 82.0425 72.04C81.9785 71.208 81.9465 70.6 81.9465 70.216C81.9465 66.824 82.8425 63.768 84.6345 61.048C85.3385 59.96 86.1545 59.16 87.0825 58.648C88.0105 58.136 88.9705 57.88 89.9625 57.88C91.0505 57.88 92.0745 58.168 93.0345 58.744C94.0265 59.288 94.7945 60.024 95.3385 60.952C95.5945 61.4 95.7225 61.768 95.7225 62.056C95.7225 62.632 95.2265 62.936 94.2345 62.968C93.9785 62.968 93.6745 62.936 93.3225 62.872C93.0025 62.808 92.7625 62.76 92.6025 62.728C92.1545 62.664 91.8185 62.632 91.5945 62.632C90.1865 62.632 89.2265 63.4 88.7145 64.936C88.1065 66.664 87.6585 68.104 87.3705 69.256C87.0825 70.408 86.9385 71.56 86.9385 72.712C86.9385 73.544 87.0665 74.152 87.3225 74.536C87.5785 74.92 87.9785 75.112 88.5225 75.112C89.0345 75.112 89.7705 74.936 90.7305 74.584C91.4985 74.296 92.2985 73.912 93.1305 73.432C93.9945 72.952 94.8265 72.472 95.6265 71.992L96.6825 71.368ZM109.103 53.368C109.135 56.472 109.215 59.032 109.343 61.048C109.503 63.032 109.855 65.144 110.399 67.384C111.743 66.904 112.975 66.664 114.095 66.664C115.983 66.664 117.615 67.224 118.991 68.344C120.367 69.464 121.295 70.856 121.775 72.52C122.159 73.736 122.351 75.368 122.351 77.416L122.303 81.16C122.303 81.384 122.175 81.64 121.919 81.928C121.663 82.216 121.407 82.392 121.151 82.456C121.055 82.488 120.911 82.504 120.719 82.504C119.983 82.504 119.215 82.136 118.415 81.4C117.615 80.696 117.199 79.992 117.167 79.288L117.071 76.792C117.071 76.216 117.039 75.384 116.975 74.296C116.911 73.176 116.783 72.376 116.591 71.896C116.399 71.352 116.159 70.936 115.871 70.648C115.583 70.36 115.263 70.216 114.911 70.216C114.655 70.216 114.367 70.328 114.047 70.552C113.759 70.776 113.503 71.08 113.279 71.464C112.607 72.52 111.727 74.6 110.639 77.704C110.287 78.824 109.663 79.384 108.767 79.384C108.671 79.384 108.463 79.352 108.143 79.288C107.951 79.224 107.583 79.128 107.039 79C106.495 78.84 106.063 78.6 105.743 78.28C105.455 77.96 105.311 77.496 105.311 76.888C105.311 70.84 104.943 65.832 104.207 61.864C103.855 59.88 103.679 57.592 103.679 55V51.784V50.104C103.679 49.656 103.919 49.272 104.399 48.952C104.879 48.632 105.423 48.472 106.031 48.472C106.543 48.472 106.975 48.584 107.327 48.808C107.967 49.192 108.415 49.672 108.671 50.248C108.959 50.824 109.103 51.544 109.103 52.408V53.368Z" fill="#2B2B2B"/>
<path d="M31.1662 40.4105C31.0772 40.8822 30.9745 41.2536 30.8582 41.5247C30.7419 41.7959 30.5402 42.002 30.253 42.1432C29.9659 42.2844 29.6149 42.3322 29.2002 42.2865C28.8881 41.8694 28.7253 41.6107 28.7117 41.5104C28.4204 40.1203 27.83 38.5207 26.9405 36.7115C26.2627 35.3331 25.3503 33.7314 24.2033 31.9062L23.2269 30.2467C22.8729 29.6719 22.334 28.9385 21.6101 28.0464L20.6739 26.795C20.4188 26.4212 20.2348 26.1195 20.1218 25.8898C19.4299 24.4826 19.2545 22.8929 19.5955 21.1206C19.7151 20.3486 20.019 19.8426 20.5072 19.6026C21.0528 19.3343 21.7314 19.5177 22.5429 20.1528C23.2118 20.7154 23.7799 21.3632 24.2473 22.0962L25.3931 24.1002C27.1482 27.0171 28.5129 29.4663 29.4872 31.4477C30.2496 32.9984 30.7906 34.4975 31.1101 35.9451C31.4437 37.4213 31.4624 38.9098 31.1662 40.4105Z" fill="#2B2B2B"/>
<path d="M90.6859 36.3436C90.775 36.8152 90.8776 37.1866 90.9939 37.4578C91.1102 37.7289 91.3119 37.9351 91.5991 38.0763C91.8863 38.2175 92.2372 38.2652 92.6519 38.2195C92.964 37.8024 93.1268 37.5437 93.1405 37.4435C93.4318 36.0533 94.0222 34.4537 94.9117 32.6446C95.5894 31.2662 96.5018 29.6644 97.6488 27.8392L98.6252 26.1798C98.9792 25.605 99.5181 24.8715 100.242 23.9794L101.178 22.7281C101.433 22.3543 101.617 22.0525 101.73 21.8228C102.422 20.4157 102.598 18.826 102.257 17.0537C102.137 16.2817 101.833 15.7756 101.345 15.5356C100.799 15.2673 100.121 15.4508 99.3093 16.0859C98.6404 16.6485 98.0723 17.2962 97.6049 18.0292L96.459 20.0333C94.7039 22.9502 93.3392 25.3993 92.365 27.3807C91.6025 28.9314 91.0615 30.4306 90.742 31.8781C90.4084 33.3544 90.3897 34.8429 90.6859 36.3436Z" fill="#2B2B2B"/>
<path d="M62.0067 35.776C61.7187 36.16 61.4627 36.448 61.2387 36.64C61.0147 36.832 60.7427 36.928 60.4227 36.928C60.1027 36.928 59.7667 36.816 59.4147 36.592C59.3187 36.08 59.2867 35.776 59.3187 35.68C59.6707 34.304 59.8467 32.608 59.8467 30.592C59.8467 29.056 59.7347 27.216 59.5107 25.072L59.3667 23.152C59.3027 22.48 59.1427 21.584 58.8867 20.464L58.5987 18.928C58.5347 18.48 58.5027 18.128 58.5027 17.872C58.5027 16.304 59.0467 14.8 60.1347 13.36C60.5827 12.72 61.0787 12.4 61.6227 12.4C62.2307 12.4 62.7587 12.864 63.2067 13.792C63.5587 14.592 63.7827 15.424 63.8787 16.288L64.0227 18.592C64.3107 21.984 64.4547 24.784 64.4547 26.992C64.4547 28.72 64.2787 30.304 63.9267 31.744C63.5747 33.216 62.9347 34.56 62.0067 35.776Z" fill="#2B2B2B"/>
</svg>
